<?xml version="1.0" encoding="UTF-8"?>
<svg width="17px" height="38px" viewBox="0 0 17 38" version="1.1" xmlns="http://www.w3.org/2000/svg" xmlns:xlink="http://www.w3.org/1999/xlink">
    <!-- Generator: Sketch 48.2 (47327) - http://www.bohemiancoding.com/sketch -->
    <title>Stroke 3</title>
    <desc>Created with Sketch.</desc>
    <defs></defs>
    <g id="Icon/Arrow-Down-Long/White" stroke="none" stroke-width="1" fill="none" fill-rule="evenodd" transform="translate(-3.000000, -1.000000)">
        <path d="M9.5245192,32.1512779 L9.5245192,3.00594922 C9.5245192,1.89809406 10.4089721,1 11.5,1 C12.5910279,1 13.4754808,1.89809406 13.4754808,3.00594922 L13.4754808,32.1517624 L16.6276433,28.9509832 C17.3991166,28.1676113 18.6499218,28.1676113 19.4213951,28.9509832 C20.1928683,29.7343551 20.1928683,31.0044519 19.4213951,31.7878238 L12.8973697,38.4124711 C12.1259378,39.195801 10.8752141,39.1958491 10.1037237,38.4125784 L3.57871067,31.7879311 C2.80717904,31.0046185 2.80708436,29.7345217 3.5784992,28.9510905 C4.34991404,28.1676593 5.60071929,28.1675632 6.37225093,28.9508758 L9.5245192,32.1512779 Z" id="Stroke-3" fill="#000000" fill-rule="nonzero"></path>
    </g>
</svg>