<?xml version="1.0" encoding="UTF-8"?>
<svg width="24px" height="20px" viewBox="0 0 24 20" version="1.1" xmlns="http://www.w3.org/2000/svg" xmlns:xlink="http://www.w3.org/1999/xlink">
    <!-- Generator: Sketch 48.2 (47327) - http://www.bohemiancoding.com/sketch -->
    <title>Fill 1</title>
    <desc>Created with Sketch.</desc>
    <defs></defs>
    <g id="Icon/Arrow-Right/Gold" stroke="none" stroke-width="1" fill="none" fill-rule="evenodd" transform="translate(0.000000, -2.000000)">
        <path d="M15.5996816,21.4011899 C15.2076014,21.8003966 14.6928705,22 14.1781396,22 C13.664414,22 13.149683,21.8003966 12.7565975,21.4011899 C11.9714318,20.6017529 11.9714318,19.3048429 12.7565975,18.5054059 L17.2092211,13.9728744 L2.01066771,13.9728744 C0.900779134,13.9728744 0,13.0557226 0,11.9256605 C0,10.7945749 0.900779134,9.87844668 2.01066771,9.87844668 L17.0624424,9.87844668 L12.7565975,5.49433817 C11.9714318,4.69490116 11.9714318,3.39901478 12.7565975,2.59957776 C13.5427686,1.80014075 14.8145159,1.80014075 15.5996816,2.59957776 L23.3407523,10.4803276 C23.3859923,10.5325315 23.3990617,10.5407204 23.4111257,10.5530036 C24.1962914,11.3524407 24.1962914,12.648327 23.4111257,13.4477641 L15.5996816,21.4011899 Z" id="Fill-1" fill="#000000"></path>
    </g>
</svg>