<?xml version="1.0" encoding="UTF-8"?>
<svg width="16px" height="10px" viewBox="0 0 16 10" version="1.1" xmlns="http://www.w3.org/2000/svg" xmlns:xlink="http://www.w3.org/1999/xlink">
    <!-- Generator: Sketch 48.2 (47327) - http://www.bohemiancoding.com/sketch -->
    <title>Fill 1</title>
    <desc>Created with Sketch.</desc>
    <defs></defs>
    <g id="icon/down-carat/orange" stroke="none" stroke-width="1" fill="none" fill-rule="evenodd" transform="translate(-4.000000, -7.000000)">
        <g id="Page-1" transform="translate(4.000000, 7.000000)" fill="#000000">
            <path d="M15.1803558,3.58676388 L9.43523072,9.33188891 C9.42682681,9.34029283 9.4173724,9.34449478 9.40896849,9.3528987 C9.39951409,9.36340359 9.39321115,9.37495897 9.38270626,9.38546386 C8.9730155,9.79515462 8.43516507,10 7.89731464,10 C7.36051469,10 6.82266426,9.79515462 6.41192301,9.38441337 L0.615324006,3.58676388 C-0.205108002,2.76528138 -0.205108002,1.43536214 0.615324006,0.614930136 C1.43575601,-0.204451383 2.76567525,-0.205501872 3.58610726,0.614930136 L7.89731464,4.927188 L12.2095725,0.615980625 C13.0300045,-0.204451383 14.3599237,-0.204451383 15.1803558,0.615980625 C16.0007878,1.43641263 16.0007878,2.76633187 15.1803558,3.58676388" id="Fill-1"></path>
        </g>
    </g>
</svg>