<?xml version="1.0" encoding="UTF-8"?>
<svg width="24px" height="25px" viewBox="0 0 24 25" version="1.1" xmlns="http://www.w3.org/2000/svg" xmlns:xlink="http://www.w3.org/1999/xlink">
    <!-- Generator: Sketch 48.2 (47327) - http://www.bohemiancoding.com/sketch -->
    <title>Page 1</title>
    <desc>Created with Sketch.</desc>
    <defs></defs>
    <g id="icon/hamburger/white" stroke="none" stroke-width="1" fill="none" fill-rule="evenodd">
        <g id="Page-1" transform="translate(2.000000, 1.000000)" fill="#FFFFFF" fill-rule="nonzero">
            <path d="M-2.22044605e-16,2.9999 C-1.1045695,2.9999 -2,2.1044695 -2,0.9999 C-2,-0.1046695 -1.1045695,-1.0001 -2.22044605e-16,-1.0001 L19.9799995,-1.0001 C21.084569,-1.0001 21.9799995,-0.1046695 21.9799995,0.9999 C21.9799995,2.1044695 21.084569,2.9999 19.9799995,2.9999 L-2.22044605e-16,2.9999 Z" id="Stroke-1"></path>
            <path d="M-2.22044605e-16,13.099 C-1.1045695,13.099 -2,12.2035695 -2,11.099 C-2,9.9944305 -1.1045695,9.099 -2.22044605e-16,9.099 L19.9799995,9.099 C21.084569,9.099 21.9799995,9.9944305 21.9799995,11.099 C21.9799995,12.2035695 21.084569,13.099 19.9799995,13.099 L-2.22044605e-16,13.099 Z" id="Stroke-3"></path>
            <path d="M-2.22044605e-16,23.1981 C-1.1045695,23.1981 -2,22.3026695 -2,21.1981 C-2,20.0935305 -1.1045695,19.1981 -2.22044605e-16,19.1981 L19.9799995,19.1981 C21.084569,19.1981 21.9799995,20.0935305 21.9799995,21.1981 C21.9799995,22.3026695 21.084569,23.1981 19.9799995,23.1981 L-2.22044605e-16,23.1981 Z" id="Stroke-5"></path>
        </g>
    </g>
</svg>