<?xml version="1.0" encoding="UTF-8"?>
<svg width="23px" height="23px" viewBox="0 0 23 23" version="1.1" xmlns="http://www.w3.org/2000/svg" xmlns:xlink="http://www.w3.org/1999/xlink">
    <!-- Generator: Sketch 48.2 (47327) - http://www.bohemiancoding.com/sketch -->
    <title>Stroke 1</title>
    <desc>Created with Sketch.</desc>
    <defs></defs>
    <g id="icon/search/yellow" stroke="none" stroke-width="1" fill="none" fill-rule="evenodd" transform="translate(-1.000000, -1.000000)">
        <g id="Group-6" transform="translate(1.000000, 1.000000)" fill="#000000" fill-rule="nonzero">
            <path d="M14.5857864,17.4142136 C13.8047379,16.633165 13.8047379,15.366835 14.5857864,14.5857864 C15.366835,13.8047379 16.633165,13.8047379 17.4142136,14.5857864 L22.4142136,19.5857864 C23.1952621,20.366835 23.1952621,21.633165 22.4142136,22.4142136 C21.633165,23.1952621 20.366835,23.1952621 19.5857864,22.4142136 L14.5857864,17.4142136 Z M16,9.99957139 C16,6.68605612 13.3138,4 10,4 C6.68620003,4 4,6.68605612 4,9.99957139 C4,13.3133164 6.68642981,16 10,16 C13.3135702,16 16,13.3133164 16,9.99957139 Z M20,9.99957139 C20,15.5223709 15.5227938,20 10,20 C4.47720623,20 0,15.5223709 0,9.99957139 C0,4.47686914 4.47710901,0 10,0 C15.522891,0 20,4.47686914 20,9.99957139 Z" id="Stroke-1"></path>
        </g>
    </g>
</svg>