<?xml version="1.0" encoding="UTF-8"?>
<svg width="131px" height="34px" viewBox="0 0 131 34" version="1.1" xmlns="http://www.w3.org/2000/svg" xmlns:xlink="http://www.w3.org/1999/xlink">
    <!-- Generator: Sketch 48.2 (47327) - http://www.bohemiancoding.com/sketch -->
    <title>Logo/Luckydayllc-Logotype</title>
    <desc>Created with Sketch.</desc>
    <defs>
        <polygon id="path-1" points="0.000148863636 0.372 130.0175 0.372 130.0175 1.872 0.000148863636 1.872"></polygon>
        <polygon id="path-3" points="0.87465 0.3141 53.01 0.3141 53.01 1.8141 0.87465 1.8141"></polygon>
    </defs>
    <g id="Symbols" stroke="none" stroke-width="1" fill="none" fill-rule="evenodd">
        <g id="Logo/Luckydayllc-Logotype">
            <g id="Page-1">
                <path d="M14.2282884,9 L14.2282884,9.27554313 L12.486049,9.27554313 L12.486049,22.7259626 L15.6096147,22.7259626 C16.025607,22.7259626 16.4444981,22.653689 16.8677376,22.5091418 C17.2909772,22.3645945 17.689576,22.1251882 18.0620848,21.7909228 C18.4331441,21.4566573 18.7679671,21.0245214 19.0651045,20.4930092 C19.3607924,19.9630028 19.591255,19.3170574 19.7550429,18.5566789 L20,18.5566789 L20,23 L8,23 L8,22.7259626 L9.74078995,22.7259626 L9.74078995,9.27554313 L8,9.27554313 L8,9 L14.2282884,9 Z" id="Fill-1" fill="#FFFFFF"></path>
                <path d="M25.8369289,9 L25.8369289,9.28952642 L23.9317893,9.28952642 L23.9317893,18.5654467 C23.9317893,19.2141124 23.9619289,19.8437928 24.0237944,20.4576521 C24.0856599,21.0699293 24.231599,21.6173399 24.4600254,22.099884 C24.6868655,22.5808459 25.0247462,22.9716275 25.4736675,23.2674823 C25.9241751,23.5633372 26.5285533,23.7104736 27.286802,23.7104736 C28.0339467,23.7104736 28.6573604,23.6250396 29.161802,23.4525894 C29.6662437,23.2801392 30.0850254,23.0538973 30.4165609,22.7706993 C30.7465102,22.4890834 31.0019036,22.1726611 31.1811548,21.8214323 C31.3604061,21.4686215 31.4920685,21.1189748 31.5745558,20.7661639 C31.6586294,20.4149351 31.7062183,20.0842738 31.7204949,19.7757621 C31.7347716,19.4656682 31.7411168,19.207784 31.7411168,19.0005274 L31.7411168,9.28952642 L29.8550127,9.28952642 L29.8550127,9 L34,9 L34,9.28952642 L32.0726523,9.28952642 L32.0726523,18.9799599 C32.0726523,19.1998734 32.0663071,19.4799072 32.0520305,19.816897 C32.0377538,20.1538867 31.9822335,20.5082797 31.8854695,20.8800759 C31.7902919,21.2518722 31.6443528,21.6236684 31.4508249,21.9954646 C31.257297,22.3688429 30.9749365,22.7026685 30.6021574,22.9985234 C30.2293782,23.2943782 29.759835,23.5364413 29.1935279,23.7215484 C28.6272208,23.9066554 27.9292513,24 27.1012056,24 C25.7607868,24 24.6836929,23.8528636 23.8699239,23.5570088 C23.0545685,23.2595718 22.4295685,22.8751187 21.9933376,22.3989031 C21.5602792,21.9242696 21.2715736,21.3831874 21.133566,20.7772387 C20.9955584,20.1712899 20.9273477,19.5574307 20.9273477,18.938825 L20.9273477,9.28952642 L19,9.28952642 L19,9 L25.8369289,9 Z" id="Fill-3" fill="#FFFFFF"></path>
                <path d="M45.6276276,12.4473684 C45.4834835,12.003096 45.3108108,11.5356037 45.1081081,11.0417957 C44.9054054,10.5510836 44.6441441,10.0990712 44.3243243,9.68885449 C44.003003,9.27708978 43.6036036,8.93962848 43.1276276,8.67647059 C42.6501502,8.41486068 42.0585586,8.28328173 41.3528529,8.28328173 C40.3993994,8.28328173 39.6471471,8.46439628 39.0975976,8.82972136 C38.548048,9.19195046 38.1336336,9.69814241 37.8528529,10.3452012 C37.5720721,10.9922601 37.3918919,11.7647059 37.3138138,12.6594427 C37.2342342,13.5557276 37.1966967,14.5371517 37.1966967,15.6021672 C37.1966967,17.003096 37.2747748,18.1609907 37.4309309,19.0789474 C37.5885886,19.995356 37.8333333,20.7229102 38.1666667,21.2616099 C38.5,21.8003096 38.9309309,22.1780186 39.460961,22.3931889 C39.9894895,22.6099071 40.6201201,22.7167183 41.3528529,22.7167183 C41.9414414,22.7167183 42.472973,22.5959752 42.951952,22.3529412 C43.4279279,22.1114551 43.8483483,21.7910217 44.2162162,21.3931889 C44.5825826,20.995356 44.8888889,20.5417957 45.1381381,20.0278638 C45.3858859,19.5170279 45.5690691,18.9845201 45.6861862,18.4318885 L46,18.4318885 L46,22.7167183 L45.6861862,22.7167183 C45.6201201,22.5557276 45.542042,22.4442724 45.451952,22.3839009 C45.3588589,22.3235294 45.2222222,22.2925697 45.039039,22.2925697 C44.8828829,22.2925697 44.6801802,22.3297214 44.4309309,22.4040248 C44.1831832,22.4783282 43.8993994,22.5588235 43.5780781,22.6455108 C43.2582583,22.7337461 42.9084084,22.8142415 42.53003,22.8885449 C42.1501502,22.9628483 41.7522523,23 41.3333333,23 C40.3783784,23 39.457958,22.8080495 38.5690691,22.4241486 C37.6786787,22.0402477 36.8993994,21.5139319 36.2252252,20.8467492 C35.5510511,20.1811146 35.0135135,19.3947368 34.6066066,18.4922601 C34.2027027,17.5897833 34,16.6114551 34,15.5603715 C34,14.4148607 34.2252252,13.377709 34.6756757,12.4473684 C35.1276276,11.5170279 35.7057057,10.7229102 36.4114114,10.0619195 C37.1171171,9.40247678 37.9039039,8.89318885 38.7747748,8.53560372 C39.6441441,8.17956656 40.496997,8 41.3333333,8 C41.7522523,8 42.1411411,8.04024768 42.5,8.12229102 C42.8588589,8.20278638 43.1921922,8.28637771 43.5,8.374613 C43.8063063,8.46130031 44.0855856,8.54489164 44.3333333,8.62693498 C44.5825826,8.70743034 44.7897898,8.74767802 44.960961,8.74767802 C45.1441441,8.74767802 45.2822823,8.7244582 45.3723724,8.67647059 C45.463964,8.63003096 45.53003,8.5123839 45.5690691,8.32352941 L45.8828829,8.32352941 L45.8828829,12.4473684 L45.6276276,12.4473684 Z" id="Fill-5" fill="#FFFFFF"></path>
                <polygon id="Fill-7" fill="#FFFFFF" points="53.5370183 9 53.5370183 9.27554313 51.7084178 9.27554313 51.7084178 15.5678641 51.8666329 15.5678641 57.9472617 9.27554313 55.9406694 9.27554313 55.9406694 9 59.9127789 9 59.9127789 9.27554313 58.3245436 9.27554313 53.8945233 13.8769628 60.7692698 22.7259626 62 22.7259626 62 23 55.3640974 23 55.3640974 22.7259626 57.153144 22.7259626 51.8666329 15.8434072 51.7084178 15.8434072 51.7084178 22.7259626 53.5370183 22.7259626 53.5370183 23 47 23 47 22.7259626 48.8270791 22.7259626 48.8270791 9.27554313 47 9.27554313 47 9"></polygon>
                <polygon id="Fill-9" fill="#FFFFFF" points="68.570997 9 68.570997 9.27554313 66.9598917 9.27554313 71.1228253 16.1385244 74.8763413 9.27554313 73.1011564 9.27554313 73.1011564 9 77 9 77 9.27554313 75.2248151 9.27554313 71.2853422 16.4923639 71.2853422 22.7259626 73.1824148 22.7259626 73.1824148 23 66.4489009 23 66.4489009 22.7259626 68.3272216 22.7259626 68.3272216 17.2391912 63.5907907 9.27554313 62 9.27554313 62 9"></polygon>
                <path d="M86.9178039,21.7458351 C87.8022711,21.7458351 88.5585999,21.6456642 89.183665,21.4423323 C89.8102927,21.2419906 90.3369101,20.9683896 90.7650797,20.6230243 C91.1932493,20.2791542 91.5339098,19.8844511 91.7854985,19.4419052 C92.0370872,18.9993592 92.2261694,18.534387 92.3558704,18.0454934 C92.4855714,17.5580948 92.5715179,17.0692012 92.6121471,16.5818026 C92.6527763,16.092909 92.6746536,15.6339171 92.6746536,15.204827 C92.6746536,14.1507903 92.6058964,13.1969244 92.4699448,12.3447245 C92.3339931,11.4925246 92.0636525,10.7629218 91.6636108,10.1574114 C91.2604438,9.5519009 90.6963225,9.08692866 89.9696843,8.76099957 C89.2414835,8.43656557 88.2851339,8.27360103 87.1021981,8.27360103 C86.8287322,8.27360103 86.5849568,8.2765912 86.366184,8.28406664 C86.1505365,8.29004699 85.9739556,8.30649295 85.838004,8.33190944 L85.838004,21.6875267 C86.231795,21.726399 86.5912074,21.7458351 86.9178039,21.7458351 Z M81,8.33190944 L81,8.05830842 L82.8783207,8.05830842 C83.5705803,8.05830842 84.2659652,8.04933789 84.9597875,8.02990175 C85.6520471,8.00897053 86.347432,8 87.0412543,8 C87.6538181,8 88.2991978,8.03887228 88.9789561,8.11661683 C89.6602771,8.19585647 90.3337848,8.33489962 90.9994791,8.53673644 C91.6667361,8.73857326 92.2980519,9.00918411 92.8981144,9.3470739 C93.4966142,9.68645878 94.0279196,10.1155489 94.4904678,10.6358394 C94.9530159,11.1561299 95.318679,11.7750961 95.592145,12.4912431 C95.8640483,13.20739 96,14.0461341 96,15.0104656 C96,15.9598462 95.8640483,16.79261 95.592145,17.5087569 C95.318679,18.2249039 94.9561413,18.8438701 94.4998437,19.3641606 C94.0451089,19.8844511 93.5247422,20.3135412 92.9387436,20.6529261 C92.3543077,20.9908159 91.7448693,21.2614267 91.1119908,21.4632636 C90.4791124,21.6651004 89.8540473,21.8041435 89.2336702,21.8818881 C88.6148557,21.9611277 88.0413585,22 87.5100531,22 C86.7349724,22 85.963017,21.9925246 85.1926242,21.9805639 C84.4253568,21.9671081 83.6534014,21.9611277 82.8783207,21.9611277 L81,21.9611277 L81,21.6875267 L82.8783207,21.6875267 L82.8783207,8.33190944 L81,8.33190944 Z" id="Fill-11" fill="#FFFFFF"></path>
                <path d="M98.2665658,16.9993791 L102.809906,16.9993791 L100.479251,11.4659561 L98.2665658,16.9993791 Z M95.659136,22.7159561 L101.545515,8 L102.079403,8 L108.300028,22.7159561 L110,22.7159561 L110,23 L103.361943,23 L103.361943,22.7159561 L105.199546,22.7159561 L102.908214,17.283423 L98.1682579,17.283423 L95.975234,22.7159561 L97.7326779,22.7159561 L97.7326779,23 L94,23 L94,22.7159561 L95.659136,22.7159561 Z" id="Fill-13" fill="#FFFFFF"></path>
                <polygon id="Fill-15" fill="#FFFFFF" points="112.570997 9 112.570997 9.27554313 110.959892 9.27554313 115.122825 16.1385244 118.877904 9.27554313 117.101156 9.27554313 117.101156 9 121 9 121 9.27554313 119.224815 9.27554313 115.285342 16.4923639 115.285342 22.7259626 117.183977 22.7259626 117.183977 23 110.450464 23 110.450464 22.7259626 112.327222 22.7259626 112.327222 17.2391912 107.590791 9.27554313 106 9.27554313 106 9"></polygon>
                <g id="Group-19">
                    <mask id="mask-2" fill="white">
                        <use xlink:href="#path-1"></use>
                    </mask>
                    <g id="Clip-18"></g>
                    <path d="M129.684194,1.044 L0.332114773,1.044 C0.1490125,1.044 0.000148863636,0.8925 0.000148863636,0.708 C0.000148863636,0.522 0.1490125,0.372 0.332114773,0.372 L129.684194,0.372 C129.867297,0.372 130.017649,0.522 130.017649,0.708 C130.017649,0.8925 129.867297,1.044 129.684194,1.044" id="Fill-17" fill="#FFFFFF" mask="url(#mask-2)"></path>
                </g>
                <path d="M51.6648733,31.448 L0.333630636,31.448 C0.14961015,31.448 0,31.348 0,31.224 C0,31.1 0.14961015,31 0.333630636,31 L51.6648733,31 C51.8488937,31 52,31.1 52,31.224 C52,31.348 51.8488937,31.448 51.6648733,31.448" id="Fill-20" fill="#FFFFFF"></path>
                <g id="Group-24" transform="translate(77.000000, 31.000000)">
                    <mask id="mask-4" fill="white">
                        <use xlink:href="#path-3"></use>
                    </mask>
                    <g id="Clip-23"></g>
                    <path d="M52.67415,0.9861 L1.21065,0.9861 C1.02465,0.9861 0.87465,0.8361 0.87465,0.6501 C0.87465,0.4641 1.02465,0.3141 1.21065,0.3141 L52.67415,0.3141 C52.85865,0.3141 53.01015,0.4641 53.01015,0.6501 C53.01015,0.8361 52.85865,0.9861 52.67415,0.9861" id="Fill-22" fill="#FFFFFF" mask="url(#mask-4)"></path>
                </g>
                <path d="M58.1131528,27 L58.1131528,27.1371367 L57.2427466,27.1371367 L57.2427466,33.8628633 L58.8051257,33.8628633 C59.0125725,33.8628633 59.2229207,33.8266954 59.4332689,33.7543595 C59.6450677,33.6820237 59.8438104,33.5629709 60.0294971,33.3956943 C60.2151838,33.2284177 60.3820116,33.0114101 60.5314313,32.7461787 C60.6808511,32.4809473 60.7954545,32.1584499 60.8766925,31.7771798 L61,31.7771798 L61,34 L55,34 L55,33.8628633 L55.8704062,33.8628633 L55.8704062,27.1371367 L55,27.1371367 L55,27 L58.1131528,27 Z" id="Fill-25" fill="#FFFFFF"></path>
                <path d="M65.1131528,27 L65.1131528,27.1371367 L64.2427466,27.1371367 L64.2427466,33.8628633 L65.8051257,33.8628633 C66.0125725,33.8628633 66.2229207,33.8266954 66.4332689,33.7543595 C66.6450677,33.6820237 66.8438104,33.5629709 67.0294971,33.3956943 C67.2151838,33.2284177 67.3820116,33.0114101 67.5314313,32.7461787 C67.6808511,32.4809473 67.7954545,32.1584499 67.8766925,31.7771798 L68,31.7771798 L68,34 L62,34 L62,33.8628633 L62.8704062,33.8628633 L62.8704062,27.1371367 L62,27.1371367 L62,27 L65.1131528,27 Z" id="Fill-27" fill="#FFFFFF"></path>
                <path d="M73.8136273,29.0764305 C73.741483,28.868209 73.6558116,28.6498657 73.5536072,28.4199546 C73.4529058,28.1914894 73.3221443,27.980376 73.1613226,27.7880603 C73.002004,27.5971907 72.8021042,27.4395786 72.5631263,27.3166701 C72.3256513,27.1937616 72.0295591,27.1330304 71.6763527,27.1330304 C71.1998998,27.1330304 70.8241483,27.2183433 70.5490982,27.3875232 C70.2755511,27.5581491 70.0666333,27.7938442 69.9253507,28.0946086 C69.7855711,28.3968188 69.6953908,28.7568684 69.6563126,29.1747573 C69.6172345,29.5926461 69.5976954,30.0510225 69.5976954,30.5484404 C69.5976954,31.2020244 69.6367735,31.7428217 69.7149299,32.1708325 C69.7930862,32.5973972 69.9163327,32.9372031 70.0831663,33.188804 C70.25,33.4404049 70.4649299,33.6168147 70.7294589,33.7165875 C70.995491,33.8178062 71.3096192,33.8684156 71.6763527,33.8684156 C71.9694389,33.8684156 72.2369739,33.8105763 72.4744489,33.6977897 C72.7149299,33.5850031 72.9238477,33.4360669 73.1072144,33.2495352 C73.2905812,33.0644495 73.4438878,32.8518901 73.5686373,32.613303 C73.6933868,32.374716 73.7835671,32.126007 73.8436874,31.8686222 L74,31.8686222 L74,33.8684156 L73.8436874,33.8684156 C73.8106212,33.7932245 73.7715431,33.7411692 73.7249499,33.7122495 C73.6798597,33.6847759 73.6107214,33.6703161 73.5205411,33.6703161 C73.4408818,33.6703161 73.3401804,33.6876678 73.2169339,33.7223714 C73.0921844,33.755629 72.9493988,33.7946705 72.7885772,33.835158 C72.6292585,33.8756455 72.4549098,33.9132411 72.2655311,33.9479446 C72.0746493,33.9826482 71.8762525,34 71.6658317,34 C71.1893788,34 70.7279559,33.9103491 70.2830661,33.7310473 C69.8381764,33.5517455 69.4488978,33.3073745 69.1122244,32.9950423 C68.7755511,32.6841562 68.506513,32.3183227 68.3036072,31.8960958 C68.1007014,31.475315 68,31.0198306 68,30.5281967 C68,29.9946292 68.1127255,29.5102252 68.3366733,29.0764305 C68.5636273,28.6426358 68.8522044,28.2710184 69.2069138,27.9630242 C69.5586172,27.65503 69.9524048,27.4178889 70.3867735,27.2501549 C70.8226453,27.083867 71.247996,27 71.6658317,27 C71.8762525,27 72.0701403,27.0202438 72.250501,27.0578393 C72.4293587,27.0954348 72.5961924,27.1344763 72.749499,27.1749639 C72.9043086,27.2154514 73.0425852,27.2559389 73.1658317,27.2935344 C73.2905812,27.3311299 73.3957916,27.3499277 73.4799599,27.3499277 C73.5716433,27.3499277 73.6407816,27.3383598 73.6858717,27.3166701 C73.7309619,27.2949804 73.7655311,27.2400331 73.7835671,27.1518281 L73.9413828,27.1518281 L73.9413828,29.0764305 L73.8136273,29.0764305 Z" id="Fill-29" fill="#FFFFFF"></path>
            </g>
        </g>
    </g>
</svg>